# xmcd
#
# Track frame offsets: 
#        150
#        15281
#        39424
#        54565
#        68397
#        91451
#        109104
#        129565
#        144485
#        157436
#        177673
#        192301
#        217144
#        233357
#
# Disc length: 3318 seconds
#
# Revision: 1
# Processed by: cddbd v1.5.2PL0 Copyright (c) Steve Scherf et al.
# Submitted via: ExactAudioCopy v1.0b1
#
DISCID=c20cf40e
DTITLE=Kenny "Blue" Ray - Bless My Axe
DYEAR=1998
DGENRE=Blues
TTITLE0=The Blues Seem To Follow Me
TTITLE1=Bless My Axe
TTITLE2=How Many More Years
TTITLE3=Blues For 2 Bad Jim
TTITLE4=Call My Job
TTITLE5=Matchbox
TTITLE6=Cadillac Drive
TTITLE7=Maudie
TTITLE8=Tone Party
TTITLE9=Couch Pilot
TTITLE10=Checkin' On My Baby
TTITLE11=Sugar
TTITLE12=Reconsider Baby
TTITLE13=Mississippi 3 am
EXTD=
EXTT0=
EXTT1=
EXTT2=
EXTT3=
EXTT4=
EXTT5=
EXTT6=
EXTT7=
EXTT8=
EXTT9=
EXTT10=
EXTT11=
EXTT12=
EXTT13=
PLAYORDER=
